<svg width="56" height="56" viewBox="0 0 56 56" fill="none" xmlns="http://www.w3.org/2000/svg">
<path d="M20.9998 4.66666C14.8865 4.66666 9.9165 9.63666 9.9165 15.75C9.9165 21.7467 14.6065 26.6 20.7198 26.81C20.9065 26.7867 21.0932 26.7867 21.2332 26.81C21.2798 26.81 21.3032 26.81 21.3498 26.81C21.3732 26.81 21.3732 26.81 21.3965 26.81C27.3698 26.6 32.0598 21.7467 32.0832 15.75C32.0832 9.63666 27.1132 4.66666 20.9998 4.66666Z" fill="#00BCD4"/>
<path d="M32.8532 33.0167C26.3432 28.6767 15.7266 28.6767 9.16991 33.0167C6.20658 35 4.57324 37.6833 4.57324 40.5533C4.57324 43.4233 6.20658 46.0833 9.14657 48.0433C12.4132 50.2367 16.7066 51.3333 20.9999 51.3333C25.2932 51.3333 29.5866 50.2367 32.8532 48.0433C35.7932 46.06 37.4266 43.4 37.4266 40.5067C37.4032 37.6367 35.7932 34.9767 32.8532 33.0167Z" fill="#00BCD4"/>
<path d="M46.6433 17.1267C47.0167 21.6533 43.7967 25.62 39.34 26.1567C39.3167 26.1567 39.3167 26.1567 39.2933 26.1567H39.2233C39.0833 26.1567 38.9433 26.1567 38.8267 26.2033C36.5633 26.32 34.4867 25.5967 32.9233 24.2667C35.3267 22.12 36.7033 18.9 36.4233 15.4C36.26 13.51 35.6067 11.7833 34.6267 10.3133C35.5133 9.87001 36.54 9.59001 37.59 9.49668C42.1633 9.10001 46.2467 12.5067 46.6433 17.1267Z" fill="#00BCD4"/>
<path d="M51.3102 38.71C51.1236 40.9733 49.6769 42.9333 47.2502 44.2633C44.9169 45.5467 41.9769 46.1533 39.0602 46.0833C40.7402 44.5667 41.7202 42.6767 41.9069 40.67C42.1402 37.7767 40.7636 35 38.0102 32.7833C36.4469 31.5467 34.6269 30.5667 32.6436 29.8433C37.8002 28.35 44.2869 29.3533 48.2769 32.5733C50.4236 34.3 51.5202 36.47 51.3102 38.71Z" fill="#00BCD4"/>
</svg>
